<mxfile host="app.diagrams.net" modified="2024-06-19T14:10:57.081Z" agent="Mozilla/5.0 (Macintosh; Intel Mac OS X 10_15_7) AppleWebKit/537.36 (KHTML, like Gecko) Chrome/125.0.0.0 Safari/537.36" version="24.5.4" etag="VhjTi7QDdG78tAfwj2w2" type="github">
  <diagram name="第 1 页" id="2g30mpVbXMez-msLuD0V">
    <mxGraphModel>
      <root>
        <mxCell id="0" />
        <mxCell id="1" parent="0" />
      </root>
    </mxGraphModel>
  </diagram>
</mxfile>
